<svg xmlns="http://www.w3.org/2000/svg" version="1.1" xmlns:xlink="http://www.w3.org/1999/xlink" width="1500" height="215" viewBox="0 0 1500 215"><svg xml:space="preserve" width="1500" height="215" data-version="2" data-id="lg_IfxoYRAbLqucvrESx9" viewBox="0 0 214 215" x="0" y="0"><rect width="100%" height="100%" fill="transparent"></rect><path fill="#a4120a" d="M212.213 95.367c-3.523-49.829-43.331-89.637-93.16-93.16-3.889-.276-7.199 2.794-7.199 6.692v86.96a6.709 6.709 0 0 0 6.709 6.709h86.958c3.898 0 6.966-3.31 6.692-7.2ZM1.787 119.633c3.523 49.829 43.331 89.637 93.16 93.16 3.889.276 7.199-2.794 7.199-6.692v-86.96a6.709 6.709 0 0 0-6.709-6.709H8.48c-3.898 0-6.966 3.31-6.692 7.2Zm199.285 90.991h-80.145c-5.009 0-8.974-3.965-8.974-8.974v-80.145c0-5.009 3.965-8.974 8.974-8.974h80.145c5.009 0 8.974 3.965 8.974 8.974v80.145c0 5.009-3.965 8.974-8.974 8.974m-80.145-89.954c-.417 0-.835.418-.835.835v80.145c0 .417.418.835.835.835h80.145c.417 0 .835-.418.835-.835v-80.145c0-.417-.418-.835-.835-.835z"></path><path fill="#a4120a" d="M144.929 178.065c-1.044 0-2.087-.417-2.922-1.252L129.693 164.5c-1.67-1.67-1.67-4.174 0-5.844l12.314-12.313c1.67-1.67 4.174-1.67 5.844 0s1.67 4.174 0 5.843l-9.392 9.392 9.392 9.392c1.67 1.67 1.67 4.175 0 5.844-.835.835-1.879 1.252-2.922 1.252m32.141 0c-1.043 0-2.087-.417-2.922-1.252-1.67-1.67-1.67-4.174 0-5.844l9.392-9.392-9.392-9.392c-1.67-1.67-1.67-4.174 0-5.843 1.67-1.67 4.174-1.67 5.844 0l12.314 12.313c.835.835 1.252 1.879 1.252 2.922 0 1.044-.417 2.087-1.252 2.922l-12.314 12.314c-.835.835-1.878 1.252-2.922 1.252m-24.419 6.47c-.626 0-1.044-.208-1.67-.417-2.087-.835-2.922-3.34-2.087-5.426l16.697-37.986c.835-2.087 3.34-2.922 5.426-2.087 2.088.835 2.922 3.34 2.088 5.427l-16.697 37.985c-.626 1.67-2.296 2.505-3.757 2.505"></path></svg></svg>